<svg xmlns="http://www.w3.org/2000/svg" viewBox="0 0 1200 630" width="1200" height="630" role="img" aria-label="Ảnh minh họa: Áo chống nắng UPF 50+ có thật sự chống tia UV? Cách đọc thông số để không mua nhầm">
<defs>
<linearGradient id="g" x1="0" y1="0" x2="1" y2="1">
<stop offset="0%" stop-color="#fff1e0"/><stop offset="100%" stop-color="#ffd9a8"/>
</linearGradient>
</defs>
<rect width="1200" height="630" fill="url(#g)"/>
<circle cx="1102" cy="103" r="202" fill="#ff8a3d" opacity="0.05"/><circle cx="549" cy="552" r="111" fill="#ff8a3d" opacity="0.08"/><circle cx="328" cy="539" r="196" fill="#ff8a3d" opacity="0.11"/><circle cx="855" cy="434" r="131" fill="#ff8a3d" opacity="0.05"/><circle cx="290" cy="81" r="182" fill="#ff8a3d" opacity="0.08"/>
<g opacity="0.95"><circle cx="600.0" cy="289.8" r="90.0" fill="#ff8a3d" opacity="0.9"/><rect x="593.25" y="117.30000000000001" width="13.5" height="45.0" rx="6.75" fill="#ff8a3d" transform="rotate(0 600.0 289.8)"/><rect x="593.25" y="117.30000000000001" width="13.5" height="45.0" rx="6.75" fill="#ff8a3d" transform="rotate(30 600.0 289.8)"/><rect x="593.25" y="117.30000000000001" width="13.5" height="45.0" rx="6.75" fill="#ff8a3d" transform="rotate(60 600.0 289.8)"/><rect x="593.25" y="117.30000000000001" width="13.5" height="45.0" rx="6.75" fill="#ff8a3d" transform="rotate(90 600.0 289.8)"/><rect x="593.25" y="117.30000000000001" width="13.5" height="45.0" rx="6.75" fill="#ff8a3d" transform="rotate(120 600.0 289.8)"/><rect x="593.25" y="117.30000000000001" width="13.5" height="45.0" rx="6.75" fill="#ff8a3d" transform="rotate(150 600.0 289.8)"/><rect x="593.25" y="117.30000000000001" width="13.5" height="45.0" rx="6.75" fill="#ff8a3d" transform="rotate(180 600.0 289.8)"/><rect x="593.25" y="117.30000000000001" width="13.5" height="45.0" rx="6.75" fill="#ff8a3d" transform="rotate(210 600.0 289.8)"/><rect x="593.25" y="117.30000000000001" width="13.5" height="45.0" rx="6.75" fill="#ff8a3d" transform="rotate(240 600.0 289.8)"/><rect x="593.25" y="117.30000000000001" width="13.5" height="45.0" rx="6.75" fill="#ff8a3d" transform="rotate(270 600.0 289.8)"/><rect x="593.25" y="117.30000000000001" width="13.5" height="45.0" rx="6.75" fill="#ff8a3d" transform="rotate(300 600.0 289.8)"/><rect x="593.25" y="117.30000000000001" width="13.5" height="45.0" rx="6.75" fill="#ff8a3d" transform="rotate(330 600.0 289.8)"/><circle cx="600.0" cy="289.8" r="51.00000000000001" fill="#e5533d" opacity="0.55"/></g>
<text x="600.0" y="548.1" text-anchor="middle" font-family="-apple-system,Segoe UI,Roboto,sans-serif"
 font-size="30" font-weight="700" fill="#e5533d" letter-spacing="7" opacity="0.75">CHỐNG NẮNG</text>
<rect x="0" y="621" width="1200" height="9" fill="#ff8a3d" opacity="0.55"/>
</svg>