<svg xmlns="http://www.w3.org/2000/svg" viewBox="0 0 1200 630" width="1200" height="630" role="img" aria-label="Ảnh minh họa: Balo chống gù cho học sinh: tiêu chí chọn thật sự quan trọng trước mùa tựu trường 2026">
<defs>
<linearGradient id="g" x1="0" y1="0" x2="1" y2="1">
<stop offset="0%" stop-color="#eef7f0"/><stop offset="100%" stop-color="#cfe8d6"/>
</linearGradient>
</defs>
<rect width="1200" height="630" fill="url(#g)"/>
<circle cx="744" cy="103" r="80" fill="#3f9159" opacity="0.05"/><circle cx="871" cy="244" r="99" fill="#3f9159" opacity="0.08"/><circle cx="562" cy="341" r="126" fill="#3f9159" opacity="0.11"/><circle cx="585" cy="442" r="111" fill="#3f9159" opacity="0.05"/><circle cx="236" cy="259" r="78" fill="#3f9159" opacity="0.08"/>
<g opacity="0.95"><path d="M592.5 202.8 C 555.0 181.8, 517.5 181.8, 483.0 199.8 L 483.0 382.8 C 517.5 364.8, 555.0 364.8, 592.5 385.8 Z" fill="#3f9159"/><path d="M607.5 202.8 C 645.0 181.8, 682.5 181.8, 717.0 199.8 L 717.0 382.8 C 682.5 364.8, 645.0 364.8, 607.5 385.8 Z" fill="#2e6b42"/><rect x="501.0" y="238.8" width="69.0" height="8.25" rx="4.2" fill="#fff" opacity="0.5"/><rect x="628.5" y="238.8" width="69.0" height="8.25" rx="4.2" fill="#fff" opacity="0.35"/><rect x="501.0" y="268.8" width="69.0" height="8.25" rx="4.2" fill="#fff" opacity="0.5"/><rect x="628.5" y="268.8" width="69.0" height="8.25" rx="4.2" fill="#fff" opacity="0.35"/><rect x="501.0" y="298.8" width="69.0" height="8.25" rx="4.2" fill="#fff" opacity="0.5"/><rect x="628.5" y="298.8" width="69.0" height="8.25" rx="4.2" fill="#fff" opacity="0.35"/><rect x="501.0" y="328.8" width="69.0" height="8.25" rx="4.2" fill="#fff" opacity="0.5"/><rect x="628.5" y="328.8" width="69.0" height="8.25" rx="4.2" fill="#fff" opacity="0.35"/><rect x="592.5" y="196.8" width="15.0" height="192.0" rx="7.5" fill="#2e6b42"/></g>
<text x="600.0" y="548.1" text-anchor="middle" font-family="-apple-system,Segoe UI,Roboto,sans-serif"
 font-size="30" font-weight="700" fill="#2e6b42" letter-spacing="7" opacity="0.75">ĐỒ HỌC SINH</text>
<rect x="0" y="621" width="1200" height="9" fill="#3f9159" opacity="0.55"/>
</svg>