<svg xmlns="http://www.w3.org/2000/svg" viewBox="0 0 1200 630" width="1200" height="630" role="img" aria-label="Ảnh minh họa: Quạt tích điện, quạt đeo cổ hay máy phun sương mini? So sánh thẳng thắn cho mùa hè 2026">
<defs>
<linearGradient id="g" x1="0" y1="0" x2="1" y2="1">
<stop offset="0%" stop-color="#fff1e0"/><stop offset="100%" stop-color="#ffd9a8"/>
</linearGradient>
</defs>
<rect width="1200" height="630" fill="url(#g)"/>
<circle cx="273" cy="412" r="123" fill="#ff8a3d" opacity="0.05"/><circle cx="516" cy="467" r="168" fill="#ff8a3d" opacity="0.08"/><circle cx="835" cy="192" r="79" fill="#ff8a3d" opacity="0.11"/><circle cx="670" cy="275" r="188" fill="#ff8a3d" opacity="0.05"/><circle cx="1061" cy="146" r="197" fill="#ff8a3d" opacity="0.08"/>
<g opacity="0.95"><circle cx="600.0" cy="289.8" r="147.0" fill="none" stroke="#e5533d" stroke-width="3.3" opacity="0.35"/><circle cx="600.0" cy="289.8" r="111.0" fill="none" stroke="#e5533d" stroke-width="3.3" opacity="0.35"/><circle cx="600.0" cy="289.8" r="75.0" fill="none" stroke="#e5533d" stroke-width="3.3" opacity="0.35"/><path d="M 600.0 268.8 C 663.0 229.8, 699.0 199.8, 690.0 268.8 C 684.0 313.8, 633.0 310.8, 600.0 307.8 Z" fill="#ff8a3d" opacity="0.9" transform="rotate(0 600.0 289.8)"/><path d="M 600.0 268.8 C 663.0 229.8, 699.0 199.8, 690.0 268.8 C 684.0 313.8, 633.0 310.8, 600.0 307.8 Z" fill="#ff8a3d" opacity="0.9" transform="rotate(90 600.0 289.8)"/><path d="M 600.0 268.8 C 663.0 229.8, 699.0 199.8, 690.0 268.8 C 684.0 313.8, 633.0 310.8, 600.0 307.8 Z" fill="#ff8a3d" opacity="0.9" transform="rotate(180 600.0 289.8)"/><path d="M 600.0 268.8 C 663.0 229.8, 699.0 199.8, 690.0 268.8 C 684.0 313.8, 633.0 310.8, 600.0 307.8 Z" fill="#ff8a3d" opacity="0.9" transform="rotate(270 600.0 289.8)"/><circle cx="600.0" cy="289.8" r="21.000000000000004" fill="#e5533d"/><rect x="592.5" y="432.3" width="15.0" height="63.0" fill="#e5533d" opacity="0.8"/><rect x="537.0" y="489.3" width="126.0" height="16.5" rx="8.25" fill="#e5533d" opacity="0.8"/></g>
<text x="600.0" y="548.1" text-anchor="middle" font-family="-apple-system,Segoe UI,Roboto,sans-serif"
 font-size="30" font-weight="700" fill="#e5533d" letter-spacing="7" opacity="0.75">LÀM MÁT</text>
<rect x="0" y="621" width="1200" height="9" fill="#ff8a3d" opacity="0.55"/>
</svg>